<?xml version="1.0" encoding="UTF-8" standalone="no"?>
<!DOCTYPE svg PUBLIC "-//W3C//DTD SVG 1.1//EN" "http://www.w3.org/Graphics/SVG/1.1/DTD/svg11.dtd">
<svg xmlns="http://www.w3.org/2000/svg" version="1.1" xmlns:xlink="http://www.w3.org/1999/xlink" width="650px" height="3030.0px">
<style>text {font-family:PingFangSC-Regular, Microsoft YaHei, 'Hiragino Sans GB', Helvetica; ;font-size:14px;fill:#333;}</style>
	<text x="0" y="32">枣贿针教办券胁娇版纹颈盛屿荐慢始错恭侵交断钱闲夫早雹阶缘晃樱帝捧胳抗叠邀粱倚稀主须颜</text>
	<text x="0" y="74">攻额稼丑欧弦议络院扇宪挥府忘伐删脏康访补讯蛛凤弄甘毙劈秤争址狭街润票看胶俯胀论捡生鸭</text>
	<text x="0" y="110">遗清父书兵菠贪惕溉惑弟乒呢官舱吨落舒义亲话肥望初数梅势扮浴括反预债催余摇楚送解显窝和</text>
	<text x="0" y="153">粘阴渣侧搬虽粗扛岭贵垒缺病最宗乓彻爬优碎旋矛管扒狐圣阵凳呀尊斯罚净柳评卫屈枪师慕朽贝</text>
	<text x="0" y="202">悲协摔陆烦腔锹茎盼捉崇拘穷哑蚀澡辟撤例宜用怕指趟碗自渗骡驾助唐疼灭凉讨芬享舌务魔只卧</text>
	<text x="0" y="234">转接麦旦掩标再操充简顶饺包视填叫乌冤无整种象奋迫骂纠躁粮晶避骤李困毕途卖氏烧盆值痒闭</text>
	<text x="0" y="272">吸逝屋邻进西孙奥几彩险猎纯疗僵架晴册嫁沃冻拨企拼稠给脂段吃陈剩说泊招葡警漏独腐固到该</text>
	<text x="0" y="307">二烟借掘喇愉踪勾判控症芦瓣兰批沫培涌肩浸歼违甜昏朵挑葱美漂锅酱蛙口祝倾杂喷略造眼求合</text>
	<text x="0" y="341">辜理拴面叉嫌妻侍古拣吓名知四耗练姻筋弯洞籍踏监系瓶堵冶猫锣规棚狱花召跌联仔路勇塞够躬</text>
	<text x="0" y="381">胸墓般顿任暗毅绘臣伞以货肿疏穴境坛荡炼酬延世秀镰绞祖步观复床蹄蛋损辅纱梨款痕叛承波击</text>
	<text x="0" y="429">亿墙阔夏暂锈设邮童拒晌妇暴竭弓之恶经马贴含勉它海消戒浮嫂葛泪态勤等丧日风怎斗玻阅祸市</text>
	<text x="0" y="469">仁膏劫痰疲诱牲试晕状谦尘驱甚旺赔输播厅迎停挪侦久疑脉袋榴坊厂爸怒轨诞慈常那耍扫检砖恐</text>
	<text x="0" y="513">溜么且统饲番墨害滥豆疮晨汇算利汉梁挡锄映下禾央唤挎兼迁掏芽隙堪托熟家黎决毒督沉克毁塑</text>
	<text x="0" y="551">饱液坚碌幸斜姓螺赛亭识宫峰方尝快追获片耳金抖会茂智通蝇绢睬赴爹徐谅核习忽辰仙绣还鬼划</text>
	<text x="0" y="597">雨节慰峡饮屡卜爽乔荷刊撇蓝敞们抚申烈课肆蜓策冠腹寺惭舰杠漠磁罪惹倦客宇迷笋掀轮薄筹溪</text>
	<text x="0" y="647">直功音丸蠢顾庭捆愁姿淘妄食膛暑乏膜某查油绕剥鄙提陵射糟拦每按板洽依椒拾脸贤茶炭巧速饶</text>
	<text x="0" y="689">如鸟搏嘱辉修肚脱扁朝十慧又价门雄役抽赞灰总矿圾员爷祥苹华厌东朋撒析牢缝录汤骆跪校同餐</text>
	<text x="0" y="732">感敬阿救凯细俩局趴膀字昆醉涛鱼财莲勒乐萌郊吩劝贩移您衰似部胆霉妹鞋颠抢序剃蛾兴辱铅致</text>
	<text x="0" y="772">岁锡燃歌秘莫钟旅雷而薪领铸袖桥婚贫霜担芒盟可完育吞漫萝他兽菊免守躲貌唯友尽闸婆样妙臭</text>
	<text x="0" y="818">障遍镜衬仓坐挨答棉强但背共涨装枕千展驳语订待乘琴盲径得竹宝伪剑弱受域絮洗氧符荒痛重泛</text>
	<text x="0" y="854">胃扰擦唇出服碧护限思杀殿线国声穿齿坝宋别潮脖傅围保恒轻冲桃诚香喘或请恩涉璃台谎半趣仍</text>
	<text x="0" y="901">砍逮究廊绿导灯罩铃豪曾俘能僚司昨胖凭岗露逐容聪双携研贱腥押撑存土颤辩烂辈囊杰何孕恰川</text>
	<text x="0" y="942">雁身零誉裙盏惯吵倘旧电计很巩坡瞒高脆付将垄披终草本雕熔蝴遇孝白处疾属众睛盒慎蜻鞠犹没</text>
	<text x="0" y="983">踢摊猴虚现默三继间热泥另翁呈棋恨逼树费庄桌窃力僻箩醋件焰姑格跟袜帆制失献赌散废罗垫锋</text>
	<text x="0" y="1017">败成职配萄乳衫回切础深瘦富审顺各少革章德肝衣训肌锦听敲园寒纵掠捎捕窗胡碰首阻老渐南腰</text>
	<text x="0" y="1057">摘从榨嚷行鼻乱事才叹肯滚轿蝶虹摸犯并愧正隶降色倒刮垦庙意堤慨腿抱尖目因筑悔见讲物芝有</text>
	<text x="0" y="1090">块敢酒根织端城锐巨网巾团篇太飞浪满渴赏洪返卸表匙殊糠天士撞钻秋栏牺杨搂柿泉蔑喜代哭岸</text>
	<text x="0" y="1128">增我丽鲜嘴姐页贸菜寇朴厉妨晓咳煎援悠促记严索泻命膨染摧寸异喊庆百哄即沈叨度亩狮辞陕泽</text>
	<text x="0" y="1171">虫叙雀星权秧裕案旗张艺近激戚岔撕竞帐骗奉岂艰津像哗顽忌筒贞脊杏沿稿毯器巡尸江尤往郑石</text>
	<text x="0" y="1216">示慌结跳带狡北火呼割姥绒刻骨布介型矮船抵诊对精启汗欲踩汁刑把飘剖宙谜龟累灌滩性开沾嚼</text>
	<text x="0" y="1248">夺匀甩抛哲觉打点体滤悦柴奶竟情辨山裂梯怪脑伍健匪壳工扔滋聋允据云斩垃艇去午削丢锯王丈</text>
	<text x="0" y="1288">蕉槐距匠牵尺善安闷乃橘融住笨让起绩构谨询捷蚁呜上陡艘逆奴膊宅睁浊换派被毛饿挣摩茅责走</text>
	<text x="0" y="1327">钳照疯位漆菌全买惧榜顷施币座透耀抓套齐仿拐哀瑞所泼滨软葵超翅亏减当棕蔬纷曲镇窄筛卷睡</text>
	<text x="0" y="1372">封泡周耻售谱苏郎幕舅宰梢向拆然际棵蛇推驼吼贷帖鉴伟啦休朗皇燕崖黄颂已饭希董牌渔脚冒喂</text>
	<text x="0" y="1407">懒棒伙俭微酸姜瓦扯扶机广实韵储亡绍皆冰永福的揉埋场畜令需孩建贯蜡肃肺潜插爆妈元仗熊耽</text>
	<text x="0" y="1442">备帮远候森源都社丝瞎悼男寻九叼遭捐资验考句攀骄赤饰房边泰箭中纲烫钓航贺言帜湖就崭英槽</text>
	<text x="0" y="1486">钢苗荣梦缓驶为虾一唉哥谷讽排仪缴茫牧廉次湿堂傻准狠续蚕凶业啄肢级扬互县池灶问戏添串模</text>
	<text x="0" y="1527">舍帽袭便纪抄裁厚干蔽递末轰诗购佳厕巷贼霞队迈陪弃魄却着惨淡枝项词与误仅盈疫幻愚虏咏破</text>
	<text x="0" y="1575">孟箱临子挽刺欺拌港炎堆想礼悬循八温医麻彼厘摄鹅心站登帘庸猛参君野蒜奇酷作盖拢欠演拥炊</text>
	<text x="0" y="1612">分发匹伏眨殃衔炸浓罢娃圆饼婶销于懂载稳入霸惠仆特居具号青两罐乎达品纤纳旷嗽治气垮道粒</text>
	<text x="0" y="1659">悟退混极图握伸链隆煤炮村垂姨尚胞翼弊历键搅息选凑在狼帅投穗味式绪偏牛缠栗旱粥抬御嗓坏</text>
	<text x="0" y="1696">拳兔幼胜先汽阁敌碑昂变益俗恢筐量皂相禽时耐蹲危挠逃短栽覆棍死烛搜文游劳仇伶忆材怀傍幅</text>
	<text x="0" y="1729">框未煌绝球剧滔冬柱腊舞做振聚怜灿尾侄拖察爱鹰伤虑股母大济吊兆蚊念娱京专营裳技搭恳个榆</text>
	<text x="0" y="1776">躺蜜详灾煮紫易遣搁嘉裤牙及乞桐纸羡难壶哨洋更妖诸多壤栋届单至瓜右译底足扎质创河劲差女</text>
	<text x="0" y="1820">学均负留铜鸽林归晚孤辆较旬览闯使篮亦尼执浅普滴谣叔厨了随偿桂期信沸静若膝肠钞劣杜沙阳</text>
	<text x="0" y="1854">纽圈军眯描孔柏挖丁愤明炕掉角绑季藏省艳月车朱赵饥戴委升血碍约暖冈层挤止法放歉壮压寨连</text>
	<text x="0" y="1890">瞧俱浆户加急收恼拔滑弹洲斑陷眠测鼓翻残效魂钥予扩私励袍倍馋秃皮脾珠贡跨扑坑尿笼应奸蛮</text>
	<text x="0" y="1925">熄炉吐佛桑由史剪鼠遮概龙辛嫩冷秆化揭否柜蹈率谢狗龄赶科宁米乡鹊粉夜万硬忙刀眉葬趋积晒</text>
	<text x="0" y="1974">柄歪地馒置植咐鲁淹触钩屠苦画新趁屑桶浇雾筝证截抹甲原驰摆禁咱娘迹挺良释怖乙焦愈突族读</text>
	<text x="0" y="2012">馆伯商定惰忍玉塌黑泳今怠虎寿好沟持除凡妥估旁吹故勿侨拿公铁关适浩编斧袄烤绵株平吧鸡注</text>
	<text x="0" y="2049">仰翠你剂萍租凝六掌斤征密徒形畏择欣流药蒙笑叮秒辣运取报码哪昌木鞭珍柔卡汪矩农前确界盘</text>
	<text x="0" y="2084">真迅宾要神窑毫壁探喉传繁铲低糊呆践靠疤杯患州缎盾燥养响钉改诉蒸银皱谈雪唱锤战锻手蓄赠</text>
	<text x="0" y="2121">绸糕舟勺集库非匆室砌内签啊奔浙越肉乖敏宏左既渠授儿夹述活芳晋铺闹腾田偷馅己佩外武稻塔</text>
	<text x="0" y="2166">些旨是采岛桨鸣炒悄立羽竖逢果涝年跃糖班政景告臂谋哈咽典咸芹雅拜欢动暮粪丹蓬许其七赢杆</text>
	<text x="0" y="2198">博歇著范志宽渡坟宿蹦犁轧兄梳竿苍刷紧宣酿束窜律也光缸不蜘民涂此淋人支假席揪洒五犬坦料</text>
	<text x="0" y="2231">附俊巴厦类称喝吉群宴题红占秩肤锁丙耕斥陶震威佣维殖盗疆里搞驴狸谊比离条寄椅灵咬夕调阀</text>
	<text x="0" y="2268">辫丛税猾蚂惩枯影长春邪偶骑羊副扣闻松刚环遥找什惜畅楼扭泄引档倡夸遵谁她稍区橡誓供店伴</text>
	<text x="0" y="2318">缩盯宵列拍裹洁横辽湾亚吗笔鹿羞磨井侮笛第怨赚则举茄薯惊忠奖份丘素丰驻械屯亮污产者挂愿</text>
	<text x="0" y="2365">水绳迟写折赖捏来认捞纺刘傲颗猜卵蜂空恋隔努狂小玩叶忧后岩吴跑衡逗塘肾悉头浑爪过茧昼替</text>
	<text x="0" y="2396">这堡况程组奏拉诵基党闪猪必鸦刃醒烘防术盐隐</text>
</svg>